<svg t="1708588951353" class="icon" viewBox="0 0 1024 1024" version="1.1" xmlns="http://www.w3.org/2000/svg" p-id="4358" width="128" height="128"><path d="M320 480a32 32 0 0 0 0 64h338.624l-105.344 105.344a32 32 0 0 0 45.248 45.312l160-160a32 32 0 0 0 0-45.312l-160-160a32 32 0 1 0-45.248 45.312L658.624 480H320z" p-id="4359"></path><path d="M192 96A96 96 0 0 0 96 192v640A96 96 0 0 0 192 928h640a96 96 0 0 0 96-96V192A96 96 0 0 0 832 96H192zM160 192a32 32 0 0 1 32-32h640a32 32 0 0 1 32 32v640a32 32 0 0 1-32 32H192a32 32 0 0 1-32-32V192z" p-id="4360"></path></svg>