<svg t="1707028959288" class="icon" viewBox="0 0 1024 1024" version="1.1" xmlns="http://www.w3.org/2000/svg" p-id="6769" width="128" height="128"><path d="M530.090667 42.666667c102.4 79.018667 212.608 133.973333 401.877333 133.973333v347.008c0 165.504-212.693333 457.685333-401.877333 457.685333C340.821333 981.333333 128 689.152 128 523.648V176.64c189.056 0 299.434667-54.954667 401.962667-133.973333h0.128z m0 78.037333C444.586667 186.581333 352.554667 232.362667 194.901333 232.362667v289.365333c0 137.941333 177.408 381.525333 335.146667 381.525333 157.696 0 335.018667-243.626667 335.018667-381.525333V232.32c-152.064 0-242.986667-42.538667-325.845334-104.661333l-9.130666-6.954667z m280.362666 220.842667a29.866667 29.866667 0 0 1 3.157334 38.528l-3.157334 3.712-298.666666 298.666666a29.738667 29.738667 0 0 1-16.554667 8.405334l-4.565333 0.341333a29.781333 29.781333 0 0 1-17.408-5.589333l-3.712-3.157334-170.666667-170.666666a29.866667 29.866667 0 0 1 38.528-45.397334l3.712 3.157334 149.546667 149.589333 277.546666-277.589333a29.866667 29.866667 0 0 1 42.24 0z" fill="#000000" p-id="6770"></path></svg>