<svg t="1709448007172" class="icon" viewBox="0 0 1024 1024" version="1.1" xmlns="http://www.w3.org/2000/svg" p-id="5105" width="128" height="128"><path d="M35.192489 1022.721598H31.996484a31.96005 31.96005 0 0 1-28.764045-34.516854 511.360799 511.360799 0 0 1 839.910113-333.02372 31.96005 31.96005 0 1 1-41.548065 48.579276A447.440699 447.440699 0 0 0 67.152539 995.235955a31.96005 31.96005 0 0 1-31.96005 27.485643zM558.058906 1022.721598a31.96005 31.96005 0 0 1-17.897628-58.167291l430.821474-292.114856a31.96005 31.96005 0 0 1 35.795255 53.053683L578.513338 1017.60799a31.96005 31.96005 0 0 1-20.454432 5.113608z" fill="#333333" p-id="5106"></path><path d="M981.849169 984.369538m-38.35206 0a38.35206 38.35206 0 1 0 76.704119 0 38.35206 38.35206 0 1 0-76.704119 0Z" fill="#333333" p-id="5107"></path><path d="M514.593238 575.280899a287.640449 287.640449 0 1 1 287.64045-287.64045A287.640449 287.640449 0 0 1 514.593238 575.280899z m0-511.360799a223.72035 223.72035 0 1 0 223.72035 223.720349A223.72035 223.72035 0 0 0 514.593238 63.9201z" fill="#333333" p-id="5108"></path></svg>